<?xml version="1.0"?>
<svg width="700" height="700" xmlns="http://www.w3.org/2000/svg" xmlns:svg="http://www.w3.org/2000/svg" version="1.1">
 <g class="layer">
  <title>Layer 1</title>
  <g id="svg_5" transform="translate(5 -1) translate(71 3) matrix(2.65187 0 0 2.65187 -650.061 -580.209)">
   <path d="m301.99,318.14l-50.97,101.41c-6.59,13.02 -5.88,28.27 1.75,40.66c7.63,12.47 20.92,19.88 35.55,19.88l123.26,0c14.63,0 27.92,-7.41 35.54,-19.88s8.34,-27.64 1.75,-40.66l-50.96,-101.36c-1.75,-3.58 -2.74,-7.49 -2.74,-11.48l0,-43.4c10.23,-1.83 17.99,-10.77 17.99,-21.49c0,-12.03 -9.79,-21.9 -21.9,-21.9l-82.71,0.02c-12.03,0 -21.9,9.79 -21.9,21.91c0,10.72 7.76,19.66 17.99,21.49l0,43.39c0.08,3.86 -0.85,7.85 -2.65,11.41zm135.02,135.74c-5.47,8.83 -14.9,14.14 -25.35,14.14l-123.32,0c-10.42,0 -19.88,-5.33 -25.35,-14.14c-5.46,-8.83 -5.96,-19.66 -1.25,-28.98l26.47,-52.64l25.84,0c2.59,8.34 10.22,14.35 19.38,14.35s16.79,-6.09 19.39,-14.35l58.95,0l26.47,52.64c4.65,9.32 4.24,20.15 -1.23,28.98zm-111.91,-87.59c0,-4.62 3.77,-8.39 8.39,-8.39c4.63,0 8.4,3.77 8.4,8.39s-3.77,8.4 -8.4,8.4c-4.62,0.03 -8.39,-3.83 -8.39,-8.4zm80.64,-6.01l-52.91,0c-2.6,-8.34 -10.23,-14.36 -19.39,-14.36s-16.79,6.1 -19.38,14.36l-19.8,0l18.48,-36.75c2.6,-5.17 4,-11.05 4,-16.87l0,-42.99l66.5,0l0,42.99c0,5.79 1.39,11.62 3.99,16.87l18.51,36.75zm-106.97,-118.51c0,-5.47 4.4,-9.87 9.87,-9.87l82.8,0c5.47,0 9.87,4.4 9.87,9.87s-4.4,9.87 -9.87,9.87l-82.8,0c-5.47,0 -9.87,-4.4 -9.87,-9.87z" fill="#ffffff" id="svg_1"/>
   <path d="m298.89,408.65c-11.27,0 -20.37,9.16 -20.37,20.37c0,11.21 9.16,20.37 20.37,20.37c11.21,0 20.37,-9.16 20.37,-20.37c0,-11.18 -9.1,-20.37 -20.37,-20.37zm0,28.71c-4.62,0 -8.39,-3.77 -8.39,-8.39s3.77,-8.4 8.39,-8.4c4.62,0 8.39,3.78 8.39,8.4s-3.77,8.39 -8.39,8.39z" fill="#ffffff" id="svg_2" transform="matrix(1 0 0 1 0 0)"/>
   <path d="m401.11,418.16c-11.27,0 -20.37,9.16 -20.37,20.37c0,11.21 9.16,20.37 20.37,20.37c11.21,0 20.37,-9.16 20.37,-20.37c0,-11.18 -9.1,-20.37 -20.37,-20.37zm0,28.79c-4.62,0 -8.39,-3.77 -8.39,-8.39s3.77,-8.4 8.39,-8.4c4.62,0 8.39,3.78 8.39,8.4c0,4.59 -3.77,8.39 -8.39,8.39z" fill="#ffffff" id="svg_3" transform="matrix(1 0 0 1 0 0)"/>
   <path d="m354.84,394.24c-11.27,0 -20.37,9.16 -20.37,20.37s9.16,20.37 20.37,20.37c11.21,0 20.37,-9.16 20.37,-20.37s-9.1,-20.37 -20.37,-20.37zm0,28.77c-4.62,0 -8.39,-3.78 -8.39,-8.4s3.77,-8.39 8.39,-8.39c4.62,0 8.39,3.77 8.39,8.39s-3.77,8.4 -8.39,8.4z" fill="#ffffff" id="svg_4"/>
  </g>
 </g>
</svg>
